<svg width="14" height="14" viewBox="0 0 14 14" fill="none" xmlns="http://www.w3.org/2000/svg">
<path d="M10.124 10.1192C9.97584 9.97181 9.90174 9.7962 9.90174 9.59237C9.90174 9.38855 9.97584 9.21517 10.124 9.07224L11.4579 7.74567H5.7825C5.57313 7.74567 5.39669 7.674 5.25318 7.53066C5.10968 7.3873 5.03793 7.21104 5.03793 7.00189C5.03793 6.79272 5.10968 6.61756 5.25318 6.47639C5.39669 6.33523 5.57313 6.26465 5.7825 6.26465H11.4203L10.057 4.90882C9.92136 4.77999 9.85529 4.61534 9.85882 4.41487C9.86237 4.21442 9.93959 4.04016 10.0905 3.8921C10.2318 3.74405 10.4083 3.67178 10.6202 3.67531C10.8321 3.67882 11.0122 3.75428 11.1604 3.90168L13.7775 6.50444C13.8536 6.58202 13.9097 6.66523 13.9458 6.75406C13.9818 6.8429 13.9998 6.93406 13.9998 7.02752C13.9998 7.121 13.9818 7.21105 13.9458 7.29767C13.9097 7.38429 13.8536 7.46616 13.7775 7.54328L11.1686 10.1379C11.0329 10.2728 10.8637 10.3403 10.661 10.3403C10.4583 10.3403 10.2793 10.2666 10.124 10.1192ZM1.49979 13.9998C1.08949 13.9998 0.73695 13.8542 0.44217 13.5631C0.14739 13.272 0 12.9239 0 12.5187V1.49159C0 1.08353 0.14739 0.732911 0.44217 0.439739C0.73695 0.14658 1.08949 0 1.49979 0H6.29985C6.50922 0 6.68566 0.0737415 6.82916 0.221225C6.97267 0.36872 7.04442 0.54674 7.04442 0.755283C7.04442 0.963826 6.97267 1.13868 6.82916 1.27984C6.68566 1.42101 6.50922 1.49159 6.29985 1.49159H1.49979V12.5187H6.29985C6.50922 12.5187 6.68566 12.5904 6.82916 12.7338C6.97267 12.8771 7.04442 13.0534 7.04442 13.2625C7.04442 13.4717 6.97267 13.6468 6.82916 13.788C6.68566 13.9292 6.50922 13.9998 6.29985 13.9998H1.49979Z" fill="#F8FAFC"/>
</svg>
